<svg viewBox="0 0 96 96" xmlns="http://www.w3.org/2000/svg" xmlns:xlink="http://www.w3.org/1999/xlink" id="Icons_Theatre" overflow="hidden"><path d="M28 72 27.9 72C27.5 70.3 25.9 69 24 69L16 69C14.1 69 12.6 70.3 12.1 72L12 72C9.8 72 8 73.8 8 76L10 82 30 82 32 76C32 73.8 30.2 72 28 72Z"/><circle cx="20" cy="62" r="5"/><path d="M56 72 56 72C55.5 70.3 53.9 69 52 69L44 69C42.1 69 40.6 70.3 40.1 72L40 72C37.8 72 36 73.8 36 76L38 82 58 82 60 76C60 73.8 58.2 72 56 72Z"/><circle cx="48" cy="62" r="5"/><path d="M84 72 84 72C83.5 70.3 81.9 69 80 69L72 69C70.1 69 68.6 70.3 68.1 72L68 72C65.8 72 64 73.8 64 76L66 82 86 82 88 76C88 73.8 86.2 72 84 72Z"/><circle cx="76" cy="62" r="5"/><path d="M4 14 4 63 12.1 63C12.1 62.7 12 62.3 12 62 12 57.6 15.6 54 20 54 24.4 54 28 57.6 28 62 28 62.3 28 62.7 27.9 63L40 63C40 62.7 39.9 62.3 39.9 62 39.9 57.6 43.5 54 47.9 54 52.3 54 55.9 57.6 55.9 62 55.9 62.3 55.9 62.7 55.8 63L67.9 63C67.9 62.7 67.8 62.3 67.8 62 67.8 57.6 71.4 54 75.8 54 80.2 54 83.8 57.6 83.8 62 83.8 62.3 83.8 62.7 83.7 63L92 63 92 14 4 14Z"/></svg>